<?xml version="1.0" standalone="no"?>
<!DOCTYPE svg PUBLIC "-//W3C//DTD SVG 20010904//EN"
 "http://www.w3.org/TR/2001/REC-SVG-20010904/DTD/svg10.dtd">
<svg version="1.0" xmlns="http://www.w3.org/2000/svg"
 width="512.000000pt" height="512.000000pt" viewBox="0 0 512.000000 512.000000"
 preserveAspectRatio="xMidYMid meet">

<g transform="translate(0.000000,512.000000) scale(0.100000,-0.100000)"
fill="#000000" stroke="none">
<path d="M1420 5106 c-120 -34 -233 -124 -283 -226 -14 -30 -263 -887 -552
-1905 -480 -1688 -526 -1855 -523 -1911 4 -72 31 -119 92 -162 39 -27 40 -27
239 -30 l199 -3 -5 -22 c-44 -171 -46 -191 -60 -482 -12 -251 -12 -304 -1
-326 23 -45 68 -52 109 -16 l27 23 14 299 c8 165 19 323 25 351 35 176 184
341 357 394 35 11 66 20 68 20 2 0 4 -234 4 -520 0 -569 0 -572 57 -586 33 -9
73 12 90 46 9 18 13 107 13 333 l0 307 485 0 484 0 3 -319 3 -319 24 -26 c41
-43 99 -30 121 28 6 17 10 145 10 332 l0 304 140 0 140 0 0 -304 c0 -187 4
-315 10 -332 22 -58 80 -71 121 -28 l24 26 3 341 c3 354 1 391 -22 423 -14 18
-37 19 -598 24 l-583 5 -3 167 -2 167 32 5 c18 4 116 17 217 31 175 24 208 25
661 25 453 0 486 -1 661 -25 101 -14 199 -27 217 -31 l32 -5 -2 -167 -3 -167
-182 -5 c-200 -5 -207 -8 -219 -67 -5 -26 -1 -37 19 -57 l26 -26 291 0 290 0
0 -305 0 -305 69 0 c66 0 71 -1 83 -27 29 -61 104 -69 133 -13 13 25 15 104
15 550 0 286 2 520 4 520 2 0 33 -9 68 -20 180 -56 326 -222 358 -408 6 -37
17 -195 24 -351 l13 -285 27 -23 c42 -36 87 -29 110 16 11 22 11 75 0 316 -8
174 -20 322 -30 370 -36 179 -137 329 -289 430 -98 65 -184 92 -379 120 -97
14 -182 25 -189 25 -7 0 38 20 98 44 301 119 563 272 790 461 49 41 91 73 92
71 9 -9 223 -774 223 -797 0 -40 -27 -56 -103 -61 -52 -3 -72 -9 -89 -25 -26
-26 -27 -77 -1 -105 16 -18 28 -19 114 -16 110 3 148 22 196 93 59 88 91 -40
-492 2010 -289 1018 -537 1875 -552 1905 -50 104 -164 193 -286 226 -73 19
-2208 19 -2277 0z m386 -158 c-44 -149 -48 -183 -44 -313 4 -105 10 -145 31
-205 14 -41 24 -75 24 -76 -114 -40 -252 -155 -300 -249 -59 -118 -58 -100
-55 -847 2 -386 7 -691 12 -702 7 -15 6 -17 -3 -12 -22 14 -81 114 -109 184
l-27 67 -5 573 -5 574 -29 25 c-31 27 -66 25 -98 -4 -17 -15 -18 -56 -18 -578
0 -524 1 -567 19 -638 11 -42 27 -90 36 -107 l17 -32 -32 18 c-114 68 -392
314 -443 394 -15 24 -6 60 228 885 139 492 255 883 271 913 32 62 88 109 158
134 40 14 85 17 215 18 l163 0 -6 -22z m307 -43 c-81 -153 -78 -348 7 -492
l19 -33 -80 0 -80 0 -20 45 c-63 143 -63 319 1 488 l21 57 84 0 83 0 -35 -65z
m684 21 c27 -25 62 -70 78 -103 27 -52 30 -68 30 -153 0 -82 -4 -103 -27 -152
-15 -32 -48 -78 -73 -103 l-47 -45 -199 0 -200 0 -45 46 c-25 25 -58 71 -72
102 -23 49 -27 70 -27 152 0 84 3 102 28 152 16 33 49 76 79 103 l50 45 188 0
188 0 49 -44z m281 -29 c52 -155 50 -342 -5 -479 -14 -35 -18 -38 -55 -38
l-40 0 21 34 c86 139 89 338 7 492 l-34 65 41 -3 42 -3 23 -68z m599 58 c71
-21 134 -73 167 -137 16 -30 131 -418 271 -913 233 -824 243 -861 228 -885
-51 -79 -329 -326 -443 -394 l-32 -18 17 32 c9 17 25 65 36 107 18 71 19 114
19 638 0 620 4 584 -62 600 -22 6 -33 1 -58 -23 l-30 -30 0 -544 c0 -596 0
-601 -61 -723 -16 -33 -43 -76 -59 -95 l-30 -35 8 60 c4 33 7 355 7 715 l0
655 -24 65 c-48 132 -140 234 -261 292 -36 17 -66 31 -67 32 0 0 10 35 24 76
21 60 27 100 31 205 4 130 0 164 -44 313 l-6 22 159 0 c112 0 174 -4 210 -15z
m-426 -751 c128 -37 219 -134 248 -266 9 -37 7 -41 -31 -76 -59 -55 -122 -98
-225 -154 -51 -27 -95 -54 -99 -59 -3 -5 -6 -23 -6 -41 -1 -35 39 -78 72 -78
24 0 179 81 243 126 26 19 50 34 53 34 3 0 4 -240 2 -532 l-4 -533 -26 -96
c-49 -180 -138 -330 -275 -460 -123 -118 -253 -187 -431 -231 -113 -28 -323
-31 -425 -5 -299 75 -568 311 -680 597 -54 138 -57 176 -57 731 l0 511 36 -27
c208 -159 494 -263 809 -295 104 -11 118 -10 237 14 173 35 229 55 247 87 19
33 8 74 -25 96 -23 15 -33 15 -83 4 -249 -55 -277 -59 -362 -50 -330 35 -622
154 -798 325 -62 60 -63 64 -57 101 18 97 83 193 164 240 87 51 92 52 778 52
553 1 648 -1 695 -15z m-2284 -1587 c91 -72 265 -186 358 -234 67 -34 73 -40
110 -110 80 -151 212 -289 373 -390 l72 -45 0 -234 0 -234 -26 -6 c-40 -10
-109 2 -239 41 -422 128 -791 332 -1076 593 l-56 52 45 160 c41 141 49 161 69
166 49 13 67 72 37 123 -16 27 -11 51 72 334 5 15 23 1 97 -70 51 -49 124
-114 164 -146z m3447 -272 c58 -209 106 -385 106 -392 0 -7 -37 -41 -82 -76
-245 -191 -537 -344 -849 -445 -222 -72 -247 -77 -363 -63 -55 7 -109 15 -118
17 -16 5 -18 23 -18 204 l0 200 68 44 c146 97 270 226 352 366 34 59 48 73 83
87 179 71 441 231 607 371 52 44 98 77 101 74 3 -4 54 -178 113 -387z m-3853
-569 c206 -168 452 -310 743 -426 116 -47 117 -48 80 -54 -22 -3 -106 -15
-187 -26 -218 -30 -337 -83 -453 -200 l-49 -50 -224 0 c-246 0 -261 3 -261 59
0 15 43 177 95 361 53 184 103 359 111 388 l15 53 23 -18 c13 -10 61 -49 107
-87z m1724 -80 c183 -48 368 -47 567 4 43 11 80 20 83 20 3 0 5 -72 5 -159 l0
-159 -142 -7 c-79 -3 -249 -5 -378 -3 l-235 3 -3 164 -3 163 23 -5 c13 -2 50
-12 83 -21z m1405 -696 l0 -150 -35 0 -35 0 0 150 0 150 35 0 35 0 0 -150z
m-2340 -10 l0 -140 -30 0 -30 0 0 140 0 140 30 0 30 0 0 -140z"/>
<path d="M2509 4721 c-35 -36 -37 -61 -6 -97 17 -20 33 -27 57 -27 37 0 80 40
80 74 0 27 -53 79 -80 79 -12 0 -35 -13 -51 -29z"/>
<path d="M2480 3104 c-45 -20 -77 -50 -101 -96 -17 -33 -19 -60 -19 -248 0
-155 4 -219 14 -243 16 -38 59 -83 101 -105 39 -20 131 -20 170 1 40 20 91 75
104 110 7 17 11 114 11 238 0 187 -2 214 -19 247 -49 96 -164 138 -261 96z
m114 -150 c13 -13 16 -45 16 -198 0 -195 -3 -206 -50 -206 -47 0 -50 11 -50
206 0 194 5 214 50 214 10 0 26 -7 34 -16z"/>
<path d="M3096 3019 c-24 -19 -26 -26 -26 -98 0 -68 3 -80 23 -99 31 -29 72
-28 104 4 23 23 25 31 21 101 -3 64 -7 78 -27 94 -30 25 -62 24 -95 -2z"/>
<path d="M1925 3005 c-21 -20 -25 -34 -25 -79 0 -66 14 -100 47 -115 34 -16
47 -14 77 10 24 19 26 26 26 95 0 61 -4 78 -20 94 -28 28 -75 26 -105 -5z"/>
<path d="M2383 2260 c-54 -22 -57 -85 -6 -141 54 -60 105 -83 183 -83 78 0
129 23 183 83 40 45 47 82 22 118 -31 44 -84 38 -136 -18 -14 -15 -37 -31 -51
-34 -29 -7 -86 17 -95 41 -5 14 -54 45 -70 43 -4 0 -18 -4 -30 -9z"/>
<path d="M891 2234 c-44 -55 -22 -96 82 -154 106 -59 164 -52 181 20 10 40
-14 70 -94 116 -92 53 -138 57 -169 18z"/>
<path d="M1454 1996 c-28 -20 -38 -62 -23 -97 8 -21 25 -34 68 -50 65 -24 93
-19 124 23 30 40 14 87 -36 112 -53 26 -107 31 -133 12z"/>
<path d="M4060 2216 c-79 -46 -105 -78 -94 -120 16 -67 74 -74 170 -22 112 60
137 104 93 160 -31 39 -77 35 -169 -18z"/>
<path d="M3550 1992 c-77 -30 -90 -99 -28 -145 27 -20 29 -20 82 -3 68 21 100
57 92 101 -12 62 -63 78 -146 47z"/>
</g>
</svg>
